<svg width="338.119970703125px" height="124.44000854492187px" xmlns="http://www.w3.org/2000/svg" viewBox="80.94001464843751 12.779995727539067 338.119970703125 124.44000854492187" style="background: none;" preserveAspectRatio="xMidYMid"><defs><filter id="editing-jagged" x="-100%" y="-100%" width="300%" height="300%"><feTurbulence result="turb" baseFrequency="0.1" numOctaves="1" seed="1"></feTurbulence><feDisplacementMap in="SourceGraphic" in2="turb" scale="10"></feDisplacementMap></filter></defs><g filter="url(#editing-jagged)"><g transform="translate(135.1200076341629, 98.68000030517578)"><path d="M24.96-4.80L24.96-4.80L24.96-4.80Q24.96-9.28 26.75-18.24L26.75-18.24L17.28-18.24L13.76 0L0.38 0L8.51-42.24L22.02-42.24L18.30-23.36L27.78-23.36L31.30-42.24L44.80-42.24L44.80-42.24Q43.90-37.50 42.75-32.19L42.75-32.19L40.58-21.76L40.58-21.76Q38.14-9.60 38.14-4.29L38.14-4.29L38.14-4.29Q38.14-2.11 38.85-0.90L38.85-0.90L38.85-0.90Q35.65 1.28 31.90 1.28L31.90 1.28L31.90 1.28Q28.16 1.28 26.56-0.51L26.56-0.51L26.56-0.51Q24.96-2.30 24.96-4.80ZM49.12-1.92L49.12-1.92L49.12-1.92Q47.62-3.58 46.94-6.21L46.94-6.21L46.94-6.21Q46.27-8.83 46.27-13.12L46.27-13.12L46.27-13.12Q46.27-17.41 47.74-21.31L47.74-21.31L47.74-21.31Q49.22-25.22 51.90-28.03L51.90-28.03L51.90-28.03Q57.41-33.92 66.50-33.92L66.50-33.92L66.50-33.92Q69.76-33.92 72.13-32.83L72.13-32.83L83.07-33.92L78.34-8.96L78.34-8.96Q78.14-8.19 78.14-6.78L78.14-6.78L78.14-6.78Q78.14-5.38 79.01-4.48L79.01-4.48L79.01-4.48Q79.87-3.58 81.15-3.46L81.15-3.46L81.15-3.46Q80.51-1.28 78.18 0L78.18 0L78.18 0Q75.84 1.28 73.22 1.28L73.22 1.28L73.22 1.28Q70.59 1.28 68.83 0.29L68.83 0.29L68.83 0.29Q67.07-0.70 66.56-2.37L66.56-2.37L66.56-2.37Q65.54-0.77 63.36 0.26L63.36 0.26L63.36 0.26Q61.18 1.28 58.27 1.28L58.27 1.28L58.27 1.28Q55.36 1.28 52.99 0.51L52.99 0.51L52.99 0.51Q50.62-0.26 49.12-1.92ZM62.62-27.90L62.62-27.90L62.62-27.90Q61.89-26.75 61.25-24.80L61.25-24.80L61.25-24.80Q60.61-22.85 59.55-17.63L59.55-17.63L59.55-17.63Q58.50-12.42 58.50-8.70L58.50-8.70L58.50-8.70Q58.50-4.99 59.07-3.90L59.07-3.90L59.07-3.90Q59.65-2.82 60.67-2.82L60.67-2.82L60.67-2.82Q62.72-2.82 64.22-4.77L64.22-4.77L64.22-4.77Q65.73-6.72 66.30-10.18L66.30-10.18L69.70-28.93L69.70-28.93Q68.35-30.08 66.78-30.08L66.78-30.08L66.78-30.08Q65.22-30.08 64.29-29.57L64.29-29.57L64.29-29.57Q63.36-29.06 62.62-27.90ZM85.70-3.07L85.70-3.07L93.63-44.80L106.62-46.08L104.64-36.29L104.64-36.29Q103.94-33.28 103.04-31.17L103.04-31.17L103.04-31.17Q104.45-32.96 107.52-33.66L107.52-33.66L107.52-33.66Q108.42-33.92 109.50-33.92L109.50-33.92L109.50-33.92Q115.46-33.92 118.72-30.30L118.72-30.30L118.72-30.30Q121.98-26.69 121.98-19.71L121.98-19.71L121.98-19.71Q121.98-10.62 116.80-4.93L116.80-4.93L116.80-4.93Q111.23 1.28 101.12 1.28L101.12 1.28L101.12 1.28Q94.14 1.28 88.90-1.02L88.90-1.02L88.90-1.02Q87.04-1.86 85.70-3.07ZM101.95-22.40L98.56-3.65L98.56-3.65Q99.90-2.50 101.57-2.50L101.57-2.50L101.57-2.50Q103.23-2.50 104.19-3.14L104.19-3.14L104.19-3.14Q105.15-3.78 105.86-5.06L105.86-5.06L105.86-5.06Q107.78-8.51 109.31-19.07L109.31-19.07L109.31-19.07Q109.76-22.08 109.76-25.09L109.76-25.09L109.76-25.09Q109.76-28.10 109.09-29.06L109.09-29.06L109.09-29.06Q108.42-30.02 107.14-30.02L107.14-30.02L107.14-30.02Q103.23-30.02 101.95-22.40L101.95-22.40ZM151.74-10.82L151.74-10.82L151.74-10.82Q153.34-9.73 153.34-7.33L153.34-7.33L153.34-7.33Q153.34-4.93 152.13-3.39L152.13-3.39L152.13-3.39Q150.91-1.86 148.93-0.83L148.93-0.83L148.93-0.83Q144.83 1.28 140.42 1.28L140.42 1.28L140.42 1.28Q136 1.28 133.41 0.32L133.41 0.32L133.41 0.32Q130.82-0.64 129.09-2.43L129.09-2.43L129.09-2.43Q125.70-5.82 125.70-12.03L125.70-12.03L125.70-12.03Q125.70-21.70 130.94-27.58L130.94-27.58L130.94-27.58Q136.58-33.92 146.37-33.92L146.37-33.92L146.37-33.92Q152.45-33.92 155.46-31.36L155.46-31.36L155.46-31.36Q157.70-29.44 157.70-26.30L157.70-26.30L157.70-26.30Q157.70-15.04 138.24-15.04L138.24-15.04L138.24-15.04Q137.98-13.38 137.98-11.97L137.98-11.97L137.98-11.97Q137.98-9.02 139.30-7.90L139.30-7.90L139.30-7.90Q140.61-6.78 143.04-6.78L143.04-6.78L143.04-6.78Q145.47-6.78 148.06-7.90L148.06-7.90L148.06-7.90Q150.66-9.02 151.74-10.82ZM138.69-17.79L138.69-17.79L138.69-17.79Q143.23-17.79 145.86-20.61L145.86-20.61L145.86-20.61Q148.48-23.30 148.48-27.58L148.48-27.58L148.48-27.58Q148.48-29.06 147.94-29.86L147.94-29.86L147.94-29.86Q147.39-30.66 146.30-30.66L146.30-30.66L146.30-30.66Q145.22-30.66 144.29-30.24L144.29-30.24L144.29-30.24Q143.36-29.82 142.40-28.42L142.40-28.42L142.40-28.42Q140.03-25.22 138.69-17.79ZM185.79-10.82L185.79-10.82L185.79-10.82Q187.39-9.73 187.39-7.33L187.39-7.33L187.39-7.33Q187.39-4.93 186.18-3.39L186.18-3.39L186.18-3.39Q184.96-1.86 182.98-0.83L182.98-0.83L182.98-0.83Q178.88 1.28 174.46 1.28L174.46 1.28L174.46 1.28Q170.05 1.28 167.46 0.32L167.46 0.32L167.46 0.32Q164.86-0.64 163.14-2.43L163.14-2.43L163.14-2.43Q159.74-5.82 159.74-12.03L159.74-12.03L159.74-12.03Q159.74-21.70 164.99-27.58L164.99-27.58L164.99-27.58Q170.62-33.92 180.42-33.92L180.42-33.92L180.42-33.92Q186.50-33.92 189.50-31.36L189.50-31.36L189.50-31.36Q191.74-29.44 191.74-26.30L191.74-26.30L191.74-26.30Q191.74-15.04 172.29-15.04L172.29-15.04L172.29-15.04Q172.03-13.38 172.03-11.97L172.03-11.97L172.03-11.97Q172.03-9.02 173.34-7.90L173.34-7.90L173.34-7.90Q174.66-6.78 177.09-6.78L177.09-6.78L177.09-6.78Q179.52-6.78 182.11-7.90L182.11-7.90L182.11-7.90Q184.70-9.02 185.79-10.82ZM172.74-17.79L172.74-17.79L172.74-17.79Q177.28-17.79 179.90-20.61L179.90-20.61L179.90-20.61Q182.53-23.30 182.53-27.58L182.53-27.58L182.53-27.58Q182.53-29.06 181.98-29.86L181.98-29.86L181.98-29.86Q181.44-30.66 180.35-30.66L180.35-30.66L180.35-30.66Q179.26-30.66 178.34-30.24L178.34-30.24L178.34-30.24Q177.41-29.82 176.45-28.42L176.45-28.42L176.45-28.42Q174.08-25.22 172.74-17.79ZM193.09-3.07L193.09-3.07L201.02-44.80L214.02-46.08L212.03-36.29L212.03-36.29Q211.33-33.28 210.43-31.17L210.43-31.17L210.43-31.17Q211.84-32.96 214.91-33.66L214.91-33.66L214.91-33.66Q215.81-33.92 216.90-33.92L216.90-33.92L216.90-33.92Q222.85-33.92 226.11-30.30L226.11-30.30L226.11-30.30Q229.38-26.69 229.38-19.71L229.38-19.71L229.38-19.71Q229.38-10.62 224.19-4.93L224.19-4.93L224.19-4.93Q218.62 1.28 208.51 1.28L208.51 1.28L208.51 1.28Q201.54 1.28 196.29-1.02L196.29-1.02L196.29-1.02Q194.43-1.86 193.09-3.07ZM209.34-22.40L205.95-3.65L205.95-3.65Q207.30-2.50 208.96-2.50L208.96-2.50L208.96-2.50Q210.62-2.50 211.58-3.14L211.58-3.14L211.58-3.14Q212.54-3.78 213.25-5.06L213.25-5.06L213.25-5.06Q215.17-8.51 216.70-19.07L216.70-19.07L216.70-19.07Q217.15-22.08 217.15-25.09L217.15-25.09L217.15-25.09Q217.15-28.10 216.48-29.06L216.48-29.06L216.48-29.06Q215.81-30.02 214.53-30.02L214.53-30.02L214.53-30.02Q210.62-30.02 209.34-22.40L209.34-22.40Z" fill="#444"></path></g></g><style>text {
  font-size: 64px;
  font-family: Arial Black;
  dominant-baseline: central;
  text-anchor: middle;
}</style></svg>